<?xml version="1.0" encoding="utf-8"?>
<!-- Generator: Adobe Illustrator 23.0.2, SVG Export Plug-In . SVG Version: 6.00 Build 0)  -->
<svg version="1.1" id="Layer_1" xmlns="http://www.w3.org/2000/svg" xmlns:xlink="http://www.w3.org/1999/xlink" x="0px" y="0px"
	 viewBox="0 0 1080 1080" style="enable-background:new 0 0 1080 1080;" xml:space="preserve">
<style type="text/css">
	.st0{fill:#27C3E9;}
	.st1{fill:#FAFDFE;}
	.st2{fill:#FCFEFE;}
	.st3{fill:#FBFDFE;}
	.st4{fill:#F4FCFD;}
	.st5{fill:#27C2E7;}
	.st6{fill:#26C2E7;}
	.st7{fill:#2AC4EA;}
	.st8{fill:#2EC5EA;}
	.st9{fill:#2AC3E8;}
	.st10{fill:none;stroke:#1E8FD5;stroke-width:9;stroke-miterlimit:10;}
	.st11{fill:#FFFFFF;}
</style>
<g>
	<path class="st0" d="M657.4,1052.3c-23.3,4.7-47.7,12.3-71.4,13.9c-130.9,12.2-251.9-25.4-355.7-100.6c-13.3-9.1-21.9-24-34.6-34
		c1-13.5,2.9-26.9,3.2-40.4c0.3-46.6,0-93.3,0-139.9c0-14.4,0-29.1,0-46c-4.9,2.8-7.5,3.8-9.7,5.3c-46,30.7-98.5,8.8-107.2-44.1
		c-4.2-26,6.5-46,20.7-66.3c19.8-28.5,38.9-57.9,57.7-85.7c-16.8-14.4-8.7-30-10.4-48.5c50.9,2.5,99.5,5.6,148,7.2
		c21.7,0.9,43.4-0.3,65.1-0.9c10.4-0.3,21.1-3.8,31.4-3.8c138.3-0.3,276.6-1.3,414.7,0.3c35.6,0.3,71.3,8.8,112.4,14.1
		c-6.8,14.1-10.7,22.5-16.2,33.8c3.6,5.6,9.4,15.6,15.5,25c17.8,26.6,36.9,52.6,53.5,80.1c15.2,25.3,11,51.9-5.5,75.7
		c-15.2,21.9-38.2,30-64.8,25.7c-12.3-2.2-24-8.1-37.6-13.1c0,6.9,0,13.5,0,20c0.3,72.6,0.3,145.2,0.6,217.8
		c-57.3,44.1-120.7,81.9-191.7,99.5C669.5,1048.8,662.9,1051.3,657.4,1052.3l-0.6-36.9H449.4v28.2l207.8-1L657.4,1052.3z
		 M378.5,508.4c-35.6,0-67.7-0.3-99.8,0.3c-3.2,0-7.8,3.1-9.4,5.9c-19.8,39.1-41.5,77.6-58,118.3c-10.7,26-1.3,51.9,21.4,70.4
		c19.4,15.6,42.4,19.4,65.8,8.8c25.6-11.6,36-32.2,36-59.5c0-9.4,1.6-19.1,4.5-28.2C351.6,587.3,364.6,549.7,378.5,508.4z
		 M688.5,508.4c3.9,13.5,7.8,24.7,10.7,36c10,41.6,31.1,80.4,31.7,124.9c0.3,22.5,16.8,39.7,41.1,46c24.6,6.6,47.3,1.9,64.5-16.3
		c19.1-20.3,26.9-45.1,14.9-71c-17.5-37.9-37.6-74.5-57.3-111.4c-1.9-3.8-7.5-7.8-11.7-8.1C752,508.1,721.5,508.4,688.5,508.4z
		 M481.5,508.4c-4.5,47.6-10.4,93.6-13,139.9c-2.3,39.4,27.5,70.1,63.2,69.8c39.2-0.6,69-32.9,65.4-73.5
		c-3.6-41.9-8.4-83.6-13.6-125.2c-0.3-4.1-6.5-10.3-10-10.3C543.7,508.1,513.9,508.4,481.5,508.4z M368.4,785.7
		c-32.1,0-60.9,0-90.7,0c0,22.5-0.6,43.5,0.6,64.5c0.3,4.1,6.8,10.6,10.7,10.6c23,0.9,46,0.6,68.7-0.3c3.6-0.3,10-6.3,10-9.7
		C369.1,829.5,368.4,808.2,368.4,785.7z M696.9,785.4c0,25.3,0,49.8,0,74.8c30.5,0,59.3,0,88.1,0c0-26,0-50.4,0-74.8
		C755.2,785.4,726.7,785.4,696.9,785.4z M367.5,957.5c0-25.7,0-49.8,0-73.9c-30.5,0-59.3,0-88.8,0c0,25,0,49.1,0,73.9
		C308.8,957.5,337.3,957.5,367.5,957.5z M696.3,883.6c0,25.3,0,49.4,0,73.9c30.1,0,59.3,0,89.4,0c0-25,0-48.8,0-73.9
		C755.9,883.6,726.7,883.6,696.3,883.6z"/>
	<path class="st1" d="M867.3,947.5c-0.3-72.6-0.3-145.2-0.6-217.8c0-6.6,0-13.1,0-20c13.9,5,25.3,11,37.6,13.1
		c26.6,4.4,49.6-3.8,64.8-25.7c16.5-23.8,20.7-50.1,5.5-75.7c-16.5-27.5-35.6-53.5-53.5-80.1c-6.5-9.4-12-19.4-15.5-25
		c5.5-11.3,9.4-20,16.2-33.8c-41.1-5.3-76.8-13.8-112.4-14.1C671,466.8,533,467.7,394.7,468c-10.4,0-20.7,3.1-31.4,3.8
		c-21.7,0.9-43.4,1.9-65.1,0.9c-48.6-1.9-96.9-4.7-148-7.2c1.6,18.5-6.8,33.8,10.4,48.5c-18.8,27.9-37.6,57-57.7,85.7
		c-14.3,20.3-24.9,40.4-20.7,66.3c8.7,52.9,61.2,74.8,107.2,44.1c2.3-1.6,4.5-2.5,9.7-5.3c0,16.9,0,31.3,0,46
		c0,46.6,0.3,93.3,0,139.9c0,13.5-1.9,26.9-3.2,40.4C130,873.9,82.7,805.7,50.3,725.6c-86.2-212.8-14.6-485.4,214.8-625.3
		C558-78.4,944.4,64.9,1046.8,390.7C1110.6,592.3,1038,817.9,867.3,947.5z M86.9,729.3c1.6,5.3,1.9,11.3,4.5,15.6
		c19.8,31.3,39.8,62.6,60.3,93.6c4.9,7.2,11.3,13.1,18.8,21.3c0-38.8,0-74.2,0-110.8C138.8,754.7,111.6,747.2,86.9,729.3
		 M1007.9,452.1c-8.4-80.4-36.6-150.8-84.2-213.1c-37.6,16.3-73.2,31.6-107.9,46.6c7.8,55.4,15.5,110.8,23.3,166.5
		C894.5,452.1,950.2,452.1,1007.9,452.1z M133.6,239.3c-43.1,47.6-86.5,158-83.3,212.5c56,0,112.1,0,166.8,0
		c7.8-56.3,15.5-111.7,23.3-166.2C205.5,270.5,170.2,255.2,133.6,239.3z M735.1,308.7c-57.3,7.2-110.5,13.8-164.2,20.3
		c0,40.4,0,81.4,0,122.4c61.2,0,121.5,0,184.6,0C748.8,402.3,742,355,735.1,308.7z M300.7,451.7c64.1,0,124.1,0,184.3,0
		c0-42.2,0-83.2,0-122.7c-54.4-6.9-106.9-13.5-164.2-20.3C314.3,355,307.5,402.6,300.7,451.7z M570.9,55.9c0,66.3,0,129.2,0,195.9
		c47-5.6,92.3-11.3,140.9-17.2C679.1,161.3,646.4,94.7,570.9,55.9z M344.8,234.9c48.6,5.9,93.9,11.3,140.9,17.2
		c0-67.3,0-130.2,0-195.9C409.9,94.7,376.5,161,344.8,234.9z M46.1,476.2c0,37.2,0,72.9,0,107.7c28.8,4.7,46-7.8,57.3-30.4
		c5.8-11,13.9-21,20.7-31.6c1.9-2.8,4.5-6.3,3.9-9.1c-2.6-11.6-6.2-23.2-10-36.9C96.7,476.2,73,476.2,46.1,476.2z M893.9,876.7
		c43.1-47.3,78.1-94.2,101.1-153c-19.4,8.4-34,17.2-50.2,21.6c-15.9,4.4-33,4.7-51.2,6.9C893.9,791.3,893.9,831,893.9,876.7z
		 M989.4,597c9.7-9.7,23-16.6,24-24.7c3.6-28.5,2.6-57.3,3.9-86.1c0.3-9.1-4.2-12.2-12.6-11.6c-19.8,1.9-39.2,3.4-58.3,5.3
		c-2.6,11-5.2,20.7-6.8,30.4c-0.6,3.8-1.3,8.8,0.6,11.9C955.8,545.9,971.6,569.7,989.4,597z M869.6,178.5
		c-44.4-39.1-89.4-69.2-139.6-89.2c20.7,40.1,41.5,79.8,63.2,121.7C816.8,200.8,841.7,190.4,869.6,178.5z M326.7,88.4
		c-51.2,22.2-97.2,50.7-139.3,90.4c27.9,11.6,52.8,21.9,75.8,31.6C285.2,168.5,305.6,128.8,326.7,88.4z"/>
	<path class="st2" d="M451.7,758.8c56,0,109.2,0,162.9,0c0,73.2,0,145.8,0,220c-15.5,0-30.1,0-44.4,0c-34.7,0-69.3,0-104,0.3
		c-8.4,0-14.9,0-14.6-11.3C451.7,898.3,451.7,829.2,451.7,758.8z"/>
	<path class="st3" d="M378.5,508.4c-13.9,41-26.9,78.6-39.2,116.4c-2.9,9.1-4.9,18.8-4.5,28.2c0.3,26.9-10.4,47.6-36,59.5
		c-23.6,10.6-46.3,6.9-65.8-8.8c-22.7-18.5-32.1-44.4-21.4-70.4c16.5-40.4,38.2-79.2,58-118.3c1.3-2.8,6.2-5.9,9.4-5.9
		C310.8,508.4,342.9,508.4,378.5,508.4z"/>
	<path class="st3" d="M688.5,508.4c33,0,63.5-0.3,93.9,0.3c3.9,0,9.7,4.4,11.7,8.1c19.4,36.9,39.8,73.5,57.3,111.4
		c12,25.7,4.2,50.7-14.9,71c-17.2,18.5-39.8,23.2-64.5,16.3c-24.3-6.6-40.5-23.5-41.1-46c-0.6-44.4-21.7-83.2-31.7-124.9
		C696.3,533.1,692.4,521.8,688.5,508.4z"/>
	<path class="st3" d="M481.5,508.4c32.4,0,62.2-0.3,92,0.6c3.6,0,9.7,6.3,10,10.3c5.2,41.6,10,83.2,13.6,125.2
		c3.2,40.7-26.2,72.9-65.4,73.5c-35.6,0.6-65.4-30.4-63.2-69.8C471.1,602,477,556,481.5,508.4z"/>
	<path class="st4" d="M368.4,785.7c0,22.2,0.3,43.8-0.3,65.1c0,3.4-6.5,9.7-10,9.7c-23,0.9-46,1.3-68.7,0.3
		c-3.9-0.3-10.7-6.9-10.7-10.6c-1-21-0.6-41.9-0.6-64.5C307.5,785.7,336.7,785.7,368.4,785.7z"/>
	<path class="st1" d="M696.9,785.4c29.8,0,58.3,0,88.1,0c0,24.4,0,48.8,0,74.8c-28.8,0-58,0-88.1,0
		C696.9,835.1,696.9,810.7,696.9,785.4z"/>
	<path class="st1" d="M367.5,957.5c-30.1,0-58.6,0-88.8,0c0-24.7,0-48.5,0-73.9c29.2,0,58.3,0,88.8,0
		C367.5,908,367.5,931.8,367.5,957.5z"/>
	<path class="st1" d="M696.3,883.6c30.8,0,59.6,0,89.4,0c0,25,0,48.8,0,73.9c-30.1,0-59.3,0-89.4,0
		C696.3,933.1,696.3,909,696.3,883.6z"/>
	<path class="st5" d="M1017.6,452.1c-57.7,0-123.1,0-178.5,0c-7.8-55.7-15.5-111.1-23.3-166.5c34.3-15,70-30.4,107.9-46.6
		C971,301.2,1009.2,371.9,1017.6,452.1z"/>
	<path class="st5" d="M133.6,239.3c36.6,16,71.9,31,106.9,46.3c-7.8,54.5-15.5,109.8-23.3,166.2c-54.7,0-110.8,0-166.8,0
		C46.8,397.3,90.5,286.8,133.6,239.3z"/>
	<path class="st5" d="M735.1,308.7c6.5,46.3,13.3,93.6,20.4,142.7c-63.5,0-123.4,0-184.6,0c0-41,0-82,0-122.4
		C625,322.5,678.1,315.6,735.1,308.7z"/>
	<path class="st5" d="M300.7,451.7c6.8-49.1,13.6-96.7,20.1-143c57.3,7.2,110.1,13.8,164.2,20.3c0,39.4,0,80.4,0,122.7
		C424.8,451.7,364.9,451.7,300.7,451.7z"/>
	<path class="st6" d="M570.9,55.9c75.5,38.8,108.5,105.5,140.9,178.7c-48.6,5.9-93.9,11.6-140.9,17.2
		C570.9,185.1,570.9,122.2,570.9,55.9z"/>
	<path class="st6" d="M344.8,234.9C376.5,161.3,409.9,95,485.7,56.2c0,65.7,0,128.6,0,195.9C438.7,246.1,393.4,240.5,344.8,234.9z"
		/>
	<path class="st7" d="M46.1,476.2c26.9,0,50.9,0,71.9,0c3.9,13.8,7.5,25.3,10,36.9c0.6,2.5-2.3,6.3-3.9,9.1
		c-6.8,10.6-14.9,20.3-20.7,31.6c-11.7,22.5-28.5,34.7-57.3,30.4C46.1,549.4,46.1,513.4,46.1,476.2z"/>
	<path class="st8" d="M906.3,895.7c0-45.7-4.6-95.1-4.6-134.2c17.8-2.2,35-2.2,51.2-6.9c16.2-4.4,30.8-13.1,50.2-21.6
		C979.7,791.9,949.4,848.5,906.3,895.7z"/>
	<path class="st7" d="M989.4,597c-17.8-27.2-33.7-51-48.9-75.1c-1.9-3.1-1.3-8.1-0.6-11.9c1.9-9.7,4.2-19.1,6.8-30.4
		c18.8-1.6,38.5-3.4,58.3-5.3c8.7-0.6,13,2.2,12.6,11.6c-1.3,28.8-0.3,57.6-3.9,86.1C1012.4,580.4,999.2,587.3,989.4,597z"/>
	<path class="st9" d="M877.7,171.8c-27.9,11.9-54.7,24.4-78.4,34.4c-21.7-41.6-41.4-95.6-62.1-135.7
		C787.3,90.5,842.7,131.4,877.7,171.8z"/>
	<path class="st9" d="M323.1,74.5c-21.1,40.4-37.9,91.2-60,133.4c-23.3-9.7-51.9-22.3-79.4-33.9C224.5,129.5,271.3,94.6,323.1,74.5z
		"/>
	<path class="st7" d="M164.7,758.2c0,36.6-4.9,98.3-4.9,136.8c-7.1-8.1-22.4-26.9-26.9-34.1c-20.4-31-42.4-68.5-56-102
		c-1.9-5-5.8-12.8-7.5-18.2"/>
	<g>
		<g>
			<path class="st0" d="M440.4,1021.6c12.3,5,24.6,9.7,37.3,13.1c0.6-5,1.3-10.3,2.3-15.3c-10.7,0.3-53.5-4.7-42.1,17.8
				c9.1,18.2,42.1,16,58.6,15c8.4-0.3,11.7-14.1,2.3-15.3c-9.7-1.6-18.8-3.8-27.9-7.5c-1.3,5-2.6,9.7-4.2,14.7
				c12.6-0.9,34,1.6,34.7-15c0-2.8-1.6-5.3-3.9-6.9c-7.5-4.1-15.9-5.3-23.6-7.5c-0.6,5-1.3,10.3-2.3,15.3c19.4-2.2,38.5-2.8,58-1.6
				c-0.6-5-1.3-10.3-2.3-15.3c-3.2,0.9-6.5,1.3-9.7,0.6c0,5.3,0,10.3,0,15.6c23.6-0.6,47.3-1.3,70.9-1.9c10.7-0.3,21.4-0.6,32.4-0.9
				c12-0.3,27.5-3.4,39.2-0.6c-1.9-1.9-3.9-3.8-5.5-5.3c0,0.3-15.9,5.6-18.5,5.9c-5.8,1.3-11.7,1.6-17.5,1.9
				c-13,0.6-26.2,0.3-39.2,0.3c-28.8,0-57.7-1.3-86.2-5.6c-0.6,5-1.3,10.3-2.3,15.3c5.8-0.3,10.7,5.6,15.5,7.8
				c5.2,2.5,11,2.8,16.8,3.1c17.5,1.3,35.3,0.9,52.5-0.6c15.2-1.3,30.1-3.4,45-6.6c7.5-1.6,14.3-3.8,21.1-2.5
				c3.9,0.6,4.9,2.2,9.4,0.9c10-2.5,5.8-17.5-4.2-15c4.5-1.3-2.9-3.1-5.2-3.4c-4.5-0.6-9.1,0.9-13.3,2.2
				c-18.5,4.4-36.9,7.5-55.7,8.8c-16.2,1.3-33.4,2.5-49.6,0.3c-12-1.6-20.1-11.9-32.1-11c-8.4,0.6-11.7,13.8-2.3,15.3
				c40.5,6.3,81.3,6.9,122.5,5.9c16.2-0.3,63.5-2.8,59-27.9c-0.3-2.5-3.2-5-5.5-5.3c-9.7-2.2-20.7-0.3-30.5,0
				c-13,0.3-25.9,0.6-38.9,0.9c-25.9,0.6-51.5,1.6-77.4,2.2c-10.4,0.3-10.4,15,0,15.6c4.9,0.3,9.4,0,14.3-1.3
				c9.1-2.2,6.8-15-2.3-15.3c-19.4-0.9-38.5-0.6-58,1.6c-8.4,0.9-11.7,12.8-2.3,15.3c6.2,1.6,14.3,2.8,20.1,5.9
				c-1.3-2.2-2.6-4.4-3.9-6.9c0,0.9,0,1.9,0,2.8c1.3-2.2,2.6-4.4,3.9-6.9c-5.5,3.8-15.9,2.8-22.4,3.4c-7.1,0.6-12.3,11.3-4.2,14.7
				c10.4,4.4,20.4,7.2,31.7,9.1c0.6-5,1.3-10.3,2.3-15.3c-11.3,0.6-39.5,4.1-45.4-8.8c0,2.5,0,5.3,0,7.8c0.6-1.3,25.9-0.6,28.8-0.6
				c9.1-0.3,11-12.8,2.3-15.3c-11.3-3.1-22.4-7.2-33.4-11.6C439.1,1004.1,431,1017.6,440.4,1021.6L440.4,1021.6z"/>
		</g>
	</g>
	<g>
		<g>
			<path class="st0" d="M653.8,1042.9c10.4,0,10.4-15.6,0-15.6C643.5,1027.3,643.5,1042.9,653.8,1042.9L653.8,1042.9z"/>
		</g>
	</g>
	<g>
		<g>
			<path class="st0" d="M652.5,1043.5c10.4,0,10.4-15.6,0-15.6C642.2,1027.9,641.9,1043.5,652.5,1043.5L652.5,1043.5z"/>
		</g>
	</g>
	<g>
		<g>
			<path class="st0" d="M653.8,1043.2c10.4,0,10.4-15.6,0-15.6C643.5,1027.6,643.5,1043.2,653.8,1043.2L653.8,1043.2z"/>
		</g>
	</g>
	<g>
		<g>
			<path class="st0" d="M648,1043.9c10.4,0,10.4-15.6,0-15.6C637.6,1028.2,637.6,1043.9,648,1043.9L648,1043.9z"/>
		</g>
	</g>
	<g>
		<g>
			<path class="st0" d="M648.3,1044.5c10.4,0,10.4-15.6,0-15.6S638,1044.5,648.3,1044.5L648.3,1044.5z"/>
		</g>
	</g>
	<g>
		<g>
			<path class="st0" d="M649.6,1044.2c10.4,0,10.4-15.6,0-15.6C639.3,1028.5,639.3,1044.2,649.6,1044.2L649.6,1044.2z"/>
		</g>
	</g>
	<g>
		<g>
			<path class="st0" d="M650.6,1043.9c10.4,0,10.4-15.6,0-15.6C640.2,1028.2,640.2,1043.9,650.6,1043.9L650.6,1043.9z"/>
		</g>
	</g>
	<g>
		<g>
			<path class="st0" d="M647.4,1028.5c-10,0.9-20.1,0.6-30.1,0.9c-10.4,0.6-10.4,16.3,0,15.6c10-0.6,20.1-0.3,30.1-0.9
				C657.4,1043.2,657.7,1027.6,647.4,1028.5L647.4,1028.5z"/>
		</g>
	</g>
	<g>
		<g>
			<path class="st0" d="M596.5,1032c4.9,2.2,11,1.3,16.5,1.6c4.2,0,8.4-3.8,8.1-7.8c-0.3-4.4-3.6-7.8-8.1-7.8c-3.9,0-7.8,0.3-11.7,0
				c1.3,0.3,2.6,0.6,4.2,0.9c-0.3,0-0.3-0.3-0.6-0.3c-3.9-1.6-8.7-1.3-11,2.8C591.6,1024.8,592.3,1030.1,596.5,1032L596.5,1032z"/>
		</g>
	</g>
	<g>
		<g>
			<path class="st0" d="M593.3,1019.4c-14.3,0.6-28.8,0.9-43.1,1.6c-10.4,0.3-10.4,16,0,15.6c14.3-0.6,28.8-0.9,43.1-1.6
				C603.6,1034.5,603.6,1018.8,593.3,1019.4L593.3,1019.4z"/>
		</g>
	</g>
	<g>
		<g>
			<path class="st0" d="M523,1057.3c-1,0.6-2.3,0.6-3.2,0.3c1.6,0.3-1.6-0.9,0.3,0c1,0.6,1.9,1.3,3.2,1.9c3.9,1.9,9.1,0.9,11-2.8
				c1.9-3.8,1-8.8-2.9-10.6c-2.3-1.3-4.2-2.5-6.5-3.4c-3.2-0.9-6.8-0.6-9.7,0.9c-3.6,2.2-5.2,7.2-2.9,10.6
				C514.2,1057.9,519.1,1059.5,523,1057.3L523,1057.3z"/>
		</g>
	</g>
	<g>
		<g>
			<path class="st0" d="M534.6,1061.1c8.1-0.3,16.5,0,24.6,0.3c10.4,0.6,10.4-15,0-15.6c-8.1-0.3-16.5-0.6-24.6-0.3
				C524.3,1045.4,524.3,1061.1,534.6,1061.1L534.6,1061.1z"/>
		</g>
	</g>
	<g>
		<g>
			<path class="st0" d="M426.1,1050.4c10.4,3.8,20.7,3.8,31.7,4.1c14.9,0.3,29.2,2.8,43.7,5.6c10,1.9,14.6-13.1,4.2-15
				c-12.3-2.5-24.9-4.7-37.6-5.6c-13-0.9-25.6,0.3-37.9-4.1C420.9,1032,416.4,1047,426.1,1050.4L426.1,1050.4z"/>
		</g>
	</g>
	<g>
		<g>
			<path class="st0" d="M54.2,559.4c0-19.4,2.3-38.2,6.8-56.6c2.6-10-11.7-13.1-15.5-4.1c-10.7,24.7-10.4,51-9.1,77.3
				c0.3,10,16.5,10,16.2,0c-1-25-1.6-49.8,8.4-73.2c-5.2-1.3-10.4-2.8-15.5-4.1c-5.2,20-7.8,40.4-7.5,61
				C38,569.4,54.2,569.4,54.2,559.4L54.2,559.4z"/>
		</g>
	</g>
	<g>
		<g>
			<path class="st8" d="M936.6,815.7c-3.9,7.5-8.4,14.7-13.3,21.6c-5.8,8.4,8.1,16.3,13.9,7.8c4.9-6.9,9.4-14.1,13.3-21.6
				C955.1,814.5,941.2,806.6,936.6,815.7L936.6,815.7z"/>
		</g>
	</g>
	<g>
		<ellipse class="st10" cx="534" cy="547.2" rx="505.4" ry="525.4"/>
	</g>
	<g id="Layer_3">
		<rect x="466.3" y="1001" class="st11" width="143.2" height="16.9"/>
	</g>
</g>
</svg>
